<?xml version="1.0" standalone="no"?>
<!DOCTYPE svg PUBLIC "-//W3C//DTD SVG 20010904//EN"
 "http://www.w3.org/TR/2001/REC-SVG-20010904/DTD/svg10.dtd">
<svg version="1.0" xmlns="http://www.w3.org/2000/svg"
 width="571.000000pt" height="642.000000pt" viewBox="0 0 571.000000 642.000000"
 preserveAspectRatio="xMidYMid meet">
<metadata>
Created by potrace 1.16, written by Peter Selinger 2001-2019
</metadata>
<g transform="translate(0.000000,642.000000) scale(0.100000,-0.100000)"
fill="#ffffff" stroke="none">
<path d="M2520 6235 c-913 -111 -1697 -651 -2094 -1444 -90 -178 -206 -494
-206 -559 0 -51 41 -115 90 -139 55 -29 101 -29 158 -2 55 27 70 51 122 203
214 614 627 1088 1190 1367 227 112 449 184 705 226 158 26 593 26 750 0 280
-47 495 -116 729 -233 263 -133 523 -339 725 -578 176 -207 342 -503 437 -779
53 -154 69 -181 128 -208 77 -35 147 -19 203 44 60 69 56 115 -29 347 -138
376 -355 719 -627 990 -364 363 -864 627 -1376 729 -252 50 -657 66 -905 36z"/>
<path d="M1648 4606 c-118 -32 -196 -136 -198 -262 0 -65 46 -161 98 -204 20
-17 61 -38 91 -47 166 -48 330 61 348 232 19 179 -163 330 -339 281z"/>
<path d="M3950 4611 c-156 -33 -249 -185 -205 -336 41 -142 191 -224 336 -182
235 69 257 400 34 498 -49 21 -118 30 -165 20z"/>
<path d="M2445 3989 c-233 -21 -305 -81 -276 -229 25 -127 104 -238 292 -410
225 -207 219 -200 219 -257 0 -114 -51 -247 -143 -373 -297 -407 -706 -659
-1097 -677 -253 -12 -444 59 -610 227 -209 210 -302 534 -329 1150 -6 132 -12
183 -25 207 -51 100 -172 130 -267 68 -72 -46 -80 -103 -59 -403 31 -440 89
-714 200 -949 65 -138 134 -235 238 -335 205 -196 432 -293 739 -314 l101 -7
6 -106 c28 -445 98 -883 181 -1137 41 -126 73 -181 132 -233 57 -51 98 -64
183 -59 82 4 132 34 192 113 141 186 280 915 334 1752 l6 102 94 80 c89 78
193 193 264 294 18 26 35 47 36 47 2 0 24 -28 51 -62 73 -95 158 -186 266
-283 l97 -88 0 -76 c0 -92 25 -418 46 -596 33 -289 83 -571 144 -816 62 -250
97 -327 182 -405 56 -52 102 -67 183 -62 121 8 203 87 265 258 87 238 162 668
191 1096 l12 181 106 7 c293 20 519 114 715 297 243 227 374 544 430 1039 26
230 40 527 27 571 -34 113 -165 162 -267 98 -61 -38 -67 -55 -81 -274 -43
-678 -125 -954 -348 -1170 -163 -158 -336 -221 -580 -212 -322 12 -619 161
-920 462 -231 231 -334 412 -335 587 0 56 -5 51 191 226 196 176 278 280 313
401 45 154 -12 233 -189 262 -89 14 -776 20 -910 8z m-390 -2475 c-56 -446
-112 -793 -134 -832 -20 -36 -108 588 -136 973 l-7 90 73 23 c41 12 112 40
159 61 47 21 86 37 87 36 2 -1 -17 -159 -42 -351z m1656 317 c46 -21 117 -49
158 -62 l74 -24 -7 -110 c-7 -115 -40 -440 -56 -560 -16 -112 -62 -359 -70
-374 -10 -18 -73 307 -110 571 -29 206 -78 598 -75 598 1 0 40 -18 86 -39z"/>
</g>
</svg>
